<?xml version="1.0" standalone="no"?>
<!DOCTYPE svg PUBLIC "-//W3C//DTD SVG 20010904//EN"
 "http://www.w3.org/TR/2001/REC-SVG-20010904/DTD/svg10.dtd">
<svg version="1.0" xmlns="http://www.w3.org/2000/svg"
 width="350.000000pt" height="350.000000pt" viewBox="0 0 350.000000 350.000000"
 preserveAspectRatio="xMidYMid meet">

<g transform="translate(0.000000,350.000000) scale(0.100000,-0.100000)"
fill="#000000" stroke="none">
<path d="M1675 2862 c-45 -28 -55 -45 -62 -101 -3 -28 -10 -54 -14 -57 -14 -8
-10 -48 7 -72 27 -38 14 -62 -51 -98 -89 -50 -95 -52 -160 -65 -58 -11 -82
-28 -154 -111 -3 -4 -40 -34 -81 -67 -125 -98 -235 -247 -286 -388 l-26 -72
-57 -11 c-31 -6 -81 -15 -111 -20 -30 -5 -71 -12 -90 -15 -19 -4 -55 -9 -80
-12 -61 -7 -76 -17 -102 -66 -30 -58 -37 -215 -14 -321 20 -89 64 -181 106
-221 33 -31 52 -34 158 -20 l62 8 0 -58 c0 -48 -3 -58 -20 -62 -18 -5 -20 -14
-20 -112 l0 -108 128 -26 c70 -15 136 -27 147 -27 29 0 178 49 186 61 3 6 41
-13 87 -44 150 -100 296 -147 487 -154 213 -8 381 38 554 151 45 30 83 50 86
46 3 -5 31 -16 61 -25 56 -16 57 -16 178 17 113 30 125 36 174 82 l52 49 0
105 0 104 38 -7 c20 -4 48 -9 62 -12 63 -12 142 89 180 229 29 109 26 281 -7
343 -26 50 -47 61 -143 75 -66 9 -191 31 -271 46 -22 4 -31 16 -49 67 -53 146
-163 300 -285 396 -41 33 -98 84 -128 114 -47 48 -60 56 -113 66 -32 6 -70 18
-84 26 -14 8 -51 28 -82 45 -62 32 -72 55 -43 94 17 23 20 62 5 71 -5 3 -10
23 -10 43 0 49 -18 81 -59 109 -42 29 -113 31 -156 5z m62 -63 c7 -7 17 -8 28
-1 12 6 30 6 52 -1 30 -9 33 -14 28 -35 -3 -13 -1 -30 6 -38 6 -8 9 -23 6 -35
-5 -20 -5 -20 13 -4 18 17 20 17 26 1 4 -10 2 -22 -4 -28 -8 -8 -9 -4 -6 13 5
23 5 23 -10 5 -9 -11 -17 -36 -17 -55 l-1 -36 -7 30 c-5 24 -8 27 -16 15 -5
-8 -8 -28 -6 -43 3 -28 2 -28 -16 -10 -11 10 -16 20 -12 23 4 3 1 14 -7 24
-11 16 -14 17 -14 4 0 -9 -7 -18 -15 -22 -18 -7 -45 3 -45 16 0 5 -5 6 -11 3
-6 -4 -9 -12 -6 -19 2 -6 -5 -19 -16 -29 -18 -18 -19 -18 -15 14 2 20 -2 34
-9 36 -8 3 -13 -5 -14 -19 -1 -14 -5 -7 -9 17 -9 42 -4 82 12 102 5 6 8 22 6
34 -5 34 55 62 79 38z m-111 -111 c5 -7 3 -8 -6 -3 -10 6 -12 3 -8 -13 4 -12
2 -22 -3 -22 -10 0 -12 33 -2 43 9 9 11 9 19 -5z m174 -138 c0 -11 -4 -20 -10
-20 -5 0 -10 7 -10 15 0 10 -10 15 -30 15 -20 0 -30 -5 -30 -15 0 -8 -4 -15
-10 -15 -11 0 -14 23 -3 33 3 4 26 7 50 7 36 0 43 -3 43 -20z m-190 -30 c0 -6
-16 -27 -36 -48 -22 -22 -34 -30 -30 -18 6 18 5 18 -18 2 -38 -24 -53 -19 -26
9 13 14 29 25 35 25 7 0 22 9 35 20 25 22 40 26 40 10z m341 -21 c53 -34 79
-59 60 -59 -6 0 -23 7 -37 16 -23 16 -24 16 -18 -2 4 -11 -10 -3 -34 21 -35
35 -44 55 -25 55 4 0 28 -14 54 -31z m-294 6 c0 -8 -4 -12 -9 -9 -5 3 -6 10
-3 15 9 13 12 11 12 -6z m198 6 c3 -5 1 -12 -5 -16 -5 -3 -10 1 -10 9 0 18 6
21 15 7z m-205 -67 c0 -16 -2 -16 -24 -8 -13 5 -14 9 -5 20 13 16 29 9 29 -12z
m233 12 c3 -8 -1 -17 -10 -20 -20 -8 -25 -3 -17 18 8 20 20 21 27 2z m-473
-21 l-25 -15 25 5 c39 8 56 -8 42 -40 -17 -37 -15 -41 11 -18 12 11 32 26 44
32 30 15 127 14 167 -3 36 -15 60 -40 29 -30 -15 5 -14 2 4 -14 12 -10 23 -27
25 -38 3 -16 -2 -19 -37 -16 l-40 3 35 -23 35 -23 -50 -4 -50 -4 44 -11 c25
-6 46 -17 49 -24 6 -18 -60 -42 -113 -42 -61 0 -49 -20 13 -21 41 -1 43 -2 17
-8 -34 -8 -102 4 -123 21 -23 20 -43 68 -37 89 4 11 19 25 33 31 27 11 27 12
4 16 -13 2 -46 -8 -73 -23 -45 -23 -49 -24 -40 -6 16 30 13 45 -5 27 -8 -9
-20 -13 -26 -10 -7 5 -8 2 -3 -5 5 -9 0 -12 -16 -9 -20 2 -24 8 -22 36 0 20
11 44 24 58 12 13 18 24 12 24 -19 0 -62 -51 -68 -81 -10 -43 -28 -24 -22 23
8 63 72 117 137 117 l25 0 -25 -14z m733 1 c47 -19 87 -70 87 -111 0 -19 -4
-37 -10 -40 -5 -3 -10 3 -10 14 0 21 -55 91 -71 91 -4 0 3 -16 16 -36 47 -70
16 -116 -42 -62 -26 24 -31 13 -8 -20 18 -24 23 -25 -59 12 -21 9 -48 15 -60
13 -19 -3 -19 -4 7 -15 35 -15 42 -35 26 -73 -19 -48 -63 -69 -134 -67 l-60 2
50 3 c67 5 84 23 22 23 -62 0 -132 27 -117 45 6 8 30 17 53 21 l42 8 -50 6
-50 5 35 23 35 24 -37 -6 c-48 -9 -54 5 -21 45 21 25 23 31 10 26 -12 -4 -16
-3 -11 4 12 21 73 39 129 39 59 0 85 -9 123 -43 25 -23 27 -19 10 18 -14 32 3
48 42 40 l25 -5 -25 15 c-25 14 -25 14 -2 15 12 0 37 -6 55 -14z m-413 -32 c0
-2 -9 0 -20 6 -11 6 -20 13 -20 16 0 2 9 0 20 -6 11 -6 20 -13 20 -16z m75 16
c-3 -5 -12 -10 -18 -10 -7 0 -6 4 3 10 19 12 23 12 15 0z m-564 -196 c-25 -42
-23 -54 4 -24 18 20 41 28 30 10 -4 -7 3 -7 20 0 37 14 38 13 15 -12 -27 -29
-26 -43 2 -24 28 20 68 21 68 1 0 -7 7 -18 17 -23 9 -6 14 -16 10 -25 -3 -9
-1 -19 4 -23 6 -3 2 -12 -10 -21 -12 -8 -21 -20 -21 -26 0 -7 7 -3 15 7 8 11
15 15 15 9 0 -21 -52 -53 -86 -53 -41 0 -42 5 -5 35 28 25 59 81 48 91 -3 3
-13 -8 -22 -24 -10 -16 -30 -37 -46 -46 -28 -17 -28 -16 -35 10 -7 26 -8 26
-21 8 -14 -17 -15 -15 -11 24 3 37 2 41 -9 26 -17 -24 -16 -74 3 -140 9 -31
13 -62 10 -70 -3 -7 -1 -14 4 -14 5 0 12 12 16 28 11 51 14 47 10 -13 -2 -33
-7 -67 -11 -76 -4 -10 -1 -16 9 -16 8 0 13 4 11 8 -3 4 2 23 10 43 8 19 15 48
15 63 0 41 19 15 22 -31 1 -24 -2 -41 -10 -44 -7 -2 -10 -8 -6 -13 3 -5 0 -8
-7 -7 -7 2 -14 -4 -15 -12 0 -8 -2 -21 -2 -27 -1 -7 -13 -13 -27 -13 -18 0
-34 12 -55 42 -29 40 -43 31 -19 -14 13 -25 5 -35 -16 -18 -13 10 -15 9 -15
-9 0 -29 -18 -26 -25 4 -3 14 -7 37 -10 51 -4 19 -2 24 7 18 10 -5 11 -4 1 7
-7 7 -13 36 -12 64 1 40 3 45 9 25 8 -25 8 -25 9 -2 1 13 5 21 9 18 5 -3 6 9
4 25 -3 21 2 37 15 52 22 24 49 92 33 82 -18 -11 -10 37 11 71 12 21 29 34 41
34 20 0 20 0 -1 -36z m1059 4 c20 -34 28 -84 10 -73 -16 10 11 -58 33 -82 13
-15 18 -31 15 -52 -2 -16 -1 -28 4 -25 4 3 8 -5 9 -18 1 -23 1 -23 9 2 6 20 8
15 9 -25 1 -28 -5 -57 -11 -64 -11 -11 -10 -12 0 -6 10 5 12 -1 6 -32 -3 -21
-10 -45 -15 -53 -7 -12 -10 -11 -15 8 -5 18 -9 20 -20 11 -20 -17 -26 -6 -14
25 18 48 11 50 -20 8 -33 -46 -58 -52 -86 -21 -18 20 -18 20 10 15 25 -5 27
-3 21 17 -4 12 -8 47 -11 77 -3 45 -2 49 5 22 5 -18 11 -35 13 -37 10 -11 40
157 34 190 -10 49 -22 44 -19 -7 2 -34 1 -38 -6 -22 -11 26 -34 43 -25 20 3
-9 3 -23 0 -31 -5 -14 -9 -14 -36 0 -16 8 -37 29 -46 46 -8 17 -18 28 -21 25
-10 -10 19 -66 48 -91 37 -30 36 -35 -4 -35 -60 0 -109 59 -106 127 2 26 2 25
9 -7 5 -23 8 -27 9 -12 0 12 8 22 16 22 8 0 15 9 15 20 0 25 45 28 72 3 26
-23 22 -2 -4 27 -12 13 -16 21 -8 18 57 -23 56 -23 40 -3 -13 17 -13 18 0 10
8 -4 25 -17 38 -29 22 -20 23 -20 16 -1 -4 11 -14 30 -22 43 -13 20 -13 22 7
22 13 0 29 -12 41 -32z m-873 -105 c-3 -10 -5 -2 -5 17 0 19 2 27 5 18 2 -10
2 -26 0 -35z m137 -50 c1 -17 -2 -29 -6 -26 -15 9 -8 -27 12 -59 35 -58 21
-89 -21 -47 -23 23 -18 39 6 19 21 -18 19 3 -3 23 -16 14 -20 56 -13 120 3 23
24 -3 25 -30z m169 24 c9 -23 -6 -34 -55 -40 -39 -5 -48 -4 -48 9 0 8 -5 12
-11 9 -6 -4 -8 -14 -4 -24 5 -12 3 -13 -5 -5 -22 22 -2 53 38 57 73 7 80 7 85
-6z m155 -9 c14 -12 16 -34 2 -43 -5 -3 -7 0 -4 8 3 8 1 18 -5 22 -6 3 -11 -1
-11 -10 0 -14 -7 -16 -42 -10 -54 9 -58 12 -58 37 0 18 4 19 53 13 28 -4 58
-12 65 -17z m77 10 c3 -7 1 -26 -3 -43 l-8 -30 -12 34 c-6 18 -9 37 -6 42 8
13 24 11 29 -3z m65 2 c0 -5 -5 -10 -11 -10 -5 0 -7 5 -4 10 3 6 8 10 11 10 2
0 4 -4 4 -10z m-535 -48 c-3 -3 -11 0 -18 7 -9 10 -8 11 6 5 10 -3 15 -9 12
-12z m530 8 c-3 -5 -12 -10 -18 -10 -7 0 -6 4 3 10 19 12 23 12 15 0z m-291
-36 c10 -26 -13 -44 -55 -44 -25 0 -42 6 -49 18 -10 15 -11 14 -6 -7 5 -22 4
-23 -11 -8 -22 21 -3 44 40 50 64 8 75 7 81 -9z m149 -6 c19 -10 22 -24 7 -33
-5 -3 -10 2 -10 12 -1 17 -1 17 -11 1 -13 -23 -81 -24 -99 -3 -10 12 -10 18 0
31 14 16 75 12 113 -8z m-392 -5 c13 -16 12 -17 -3 -4 -10 7 -18 15 -18 17 0
8 8 3 21 -13z m539 13 c0 -2 -8 -10 -17 -17 -16 -13 -17 -12 -4 4 13 16 21 21
21 13z m-60 -14 c0 -5 -9 -17 -20 -27 -23 -21 -28 -44 -5 -25 24 20 29 4 6
-19 -41 -41 -54 -17 -25 45 15 30 44 47 44 26z m250 -132 c16 -29 10 -32 -20
-10 -19 14 -24 26 -22 56 4 56 15 64 24 17 4 -23 12 -52 18 -63z m-490 51 c0
-27 -55 -39 -79 -17 -10 9 -21 13 -24 9 -4 -3 -7 -2 -7 4 0 18 13 23 62 23 41
0 48 -3 48 -19z m148 -1 c3 -8 1 -12 -3 -7 -5 4 -16 0 -26 -9 -25 -22 -79 -10
-79 17 0 18 6 20 52 17 35 -2 53 -8 56 -18z m-141 -56 c-3 -3 -12 -4 -19 -1
-8 3 -5 6 6 6 11 1 17 -2 13 -5z m-40 -35 c-3 -11 0 -19 6 -19 8 0 7 -3 -1 -9
-8 -4 -14 -12 -14 -16 0 -4 6 -12 14 -16 10 -6 8 -9 -7 -9 -18 0 -20 5 -17 50
3 30 8 48 14 44 5 -4 8 -15 5 -25z m-887 -48 c-10 -19 -66 -39 -77 -27 -9 9
17 34 40 39 46 9 48 8 37 -12z m1949 -7 c19 -18 13 -23 -25 -17 -16 3 -36 13
-42 24 -11 17 -9 18 21 12 17 -3 38 -12 46 -19z m-1826 -9 c15 -14 36 -43 46
-63 24 -47 52 -142 42 -142 -4 0 -15 24 -24 53 -36 114 -101 180 -145 146 -14
-11 -13 -9 2 9 25 29 45 28 79 -3z m1713 3 c15 -18 16 -20 2 -9 -44 34 -109
-32 -145 -146 -9 -29 -20 -53 -24 -53 -10 0 18 95 43 144 23 46 64 86 88 86 9
0 25 -10 36 -22z m-1940 -7 c-17 -19 -76 -34 -76 -20 0 14 44 39 69 39 23 0
23 -1 7 -19z m2142 3 c12 -8 22 -19 22 -23 0 -14 -59 1 -76 20 -16 18 -16 19
7 19 14 0 35 -7 47 -16z m-2247 -25 c-13 -10 -34 -19 -47 -19 -39 0 -13 38 29
42 43 4 46 0 18 -23z m2360 -2 c11 -19 9 -20 -21 -13 -61 12 -82 45 -25 38 23
-3 39 -12 46 -25z m-2450 -6 c-9 -16 -69 -35 -80 -25 -8 7 21 33 42 37 46 9
48 8 38 -12z m1176 -13 c-3 -7 -5 -2 -5 12 0 14 2 19 5 13 2 -7 2 -19 0 -25z
m1372 7 c20 -19 13 -24 -27 -18 -19 3 -37 14 -43 26 -11 19 -9 20 22 13 19 -3
40 -13 48 -21z m-1322 -21 c-3 -3 -12 -4 -19 -1 -8 3 -5 6 6 6 11 1 17 -2 13
-5z m-407 -69 c23 -21 27 -40 6 -32 -11 4 -13 -3 -9 -33 3 -22 2 -47 -1 -57
-7 -17 -8 -17 -20 0 -13 16 -14 16 -19 -5 -6 -22 -6 -22 -28 -2 -12 10 -19 13
-15 6 12 -21 -23 -26 -40 -6 -12 17 -13 17 -8 2 9 -26 -22 -23 -40 4 -10 13
-16 44 -16 75 0 50 13 77 23 51 4 -9 8 -10 14 -2 14 18 36 24 86 20 27 -2 55
-11 67 -21z m992 4 c7 -11 11 -11 15 -1 10 26 23 -1 23 -51 0 -31 -6 -62 -16
-75 -16 -24 -44 -30 -45 -9 0 10 -2 10 -6 0 -7 -19 -33 -16 -33 4 0 14 -2 14
-20 -2 -20 -18 -21 -18 -27 3 -5 21 -6 21 -19 5 -12 -17 -13 -17 -20 0 -3 10
-4 35 -1 57 4 30 2 37 -9 33 -8 -3 -14 -1 -14 4 0 12 28 38 50 46 26 11 112 0
122 -14z m-1397 1 c3 -5 0 -10 -9 -10 -22 0 -38 -61 -30 -122 5 -40 4 -50 -5
-42 -18 17 -25 107 -11 148 11 35 41 49 55 26z m1708 -30 c11 -44 4 -127 -13
-143 -10 -10 -11 -2 -6 39 8 66 -2 115 -25 121 -25 7 -13 25 14 21 14 -2 24
-14 30 -38z m106 -12 c1 8 13 11 32 10 l32 -2 -5 -87 c-3 -48 -8 -92 -12 -98
-12 -19 -76 54 -75 86 0 25 1 26 9 8 6 -13 8 3 5 50 -2 45 0 61 5 45 4 -14 8
-19 9 -12z m-2066 -45 c-3 -45 -1 -54 7 -43 9 11 10 3 5 -35 -13 -116 -16
-125 -35 -125 -25 0 -39 50 -47 158 l-6 82 37 0 c20 0 36 5 36 10 0 6 2 10 4
10 2 0 2 -26 -1 -57z m87 44 c0 -8 4 -6 11 3 7 11 8 -2 5 -45 -4 -43 -3 -53 4
-35 8 22 9 20 7 -15 -2 -40 -2 -40 -42 -40 l-40 0 -3 70 -3 70 31 2 c18 1 30
-3 30 -10z m2090 -5 c8 -2 23 -4 32 -5 15 -1 18 -11 18 -57 0 -51 -21 -165
-33 -176 -10 -11 -58 9 -68 28 -8 15 -8 19 0 14 7 -5 9 3 4 25 -4 23 -3 30 6
25 8 -6 10 4 5 36 -4 34 -3 40 6 28 9 -12 10 -2 7 43 -2 32 -1 54 2 50 3 -4
13 -9 21 -11z m-719 -21 c45 -16 0 -19 -185 -10 -114 6 -265 6 -385 0 -115 -5
-200 -5 -206 0 -12 12 -19 10 115 19 138 10 630 3 661 -9z m-1559 -5 c6 4 7
-11 4 -42 -5 -37 -4 -44 4 -29 8 15 9 8 5 -30 -4 -37 -2 -46 6 -35 8 11 9 5 4
-25 -4 -29 -3 -36 4 -25 10 13 11 13 11 0 0 -24 -13 -36 -46 -43 -29 -5 -32
-3 -43 31 -7 20 -15 74 -18 119 l-6 81 29 4 c16 2 31 0 32 -5 2 -4 8 -4 14 -1z
m2368 1 c0 6 8 10 18 8 9 -2 23 -4 31 -4 11 -1 13 -17 8 -83 -3 -46 -11 -99
-18 -119 -10 -32 -14 -35 -43 -31 -33 5 -46 17 -46 42 0 13 1 13 11 0 7 -11 8
-4 4 25 -5 31 -4 37 5 25 8 -12 9 -6 4 23 -4 26 -3 37 6 37 9 0 10 13 6 48 -5
33 -4 43 3 32 6 -9 11 -10 11 -3z m100 -12 c5 3 21 3 36 -1 l27 -7 -6 -81 c-7
-101 -20 -141 -49 -143 -30 -3 -58 15 -58 35 0 15 2 15 11 2 7 -11 8 -4 4 25
-5 27 -3 36 3 26 7 -9 8 2 5 35 -3 37 -2 45 6 34 8 -11 10 0 6 45 -2 33 -2 52
1 42 3 -9 9 -15 14 -12z m-2570 0 c5 3 7 -18 4 -47 -3 -41 -2 -48 6 -33 8 15
9 8 5 -30 -4 -37 -2 -46 6 -35 8 11 9 5 4 -25 -3 -24 -2 -35 3 -27 6 9 12 1
20 -25 6 -20 9 -39 7 -41 -2 -2 -7 7 -11 22 -5 21 -9 24 -24 16 -35 -19 -57
-12 -70 23 -15 40 -26 212 -14 205 5 -3 18 -2 29 2 11 4 22 3 23 -1 2 -5 8 -7
12 -4z m465 -40 c0 -27 -4 -44 -10 -42 -12 4 -19 52 -11 73 11 28 21 13 21
-31z m1653 21 c5 -22 -6 -66 -16 -66 -4 0 -7 20 -7 45 0 43 16 58 23 21z
m-1464 5 c6 -10 -21 -16 -111 -27 -42 -4 -63 -3 -63 4 0 6 26 13 58 17 31 4
62 8 67 10 20 7 44 5 49 -4z m1381 -7 c68 -9 56 -28 -12 -20 -95 11 -123 18
-123 28 0 6 18 8 45 4 25 -3 65 -9 90 -12z m-1465 -60 c0 -8 -4 -12 -10 -9 -5
3 -10 10 -10 16 0 5 5 9 10 9 6 0 10 -7 10 -16z m1440 1 c0 -8 -4 -15 -10 -15
-5 0 -10 7 -10 15 0 8 5 15 10 15 6 0 10 -7 10 -15z m-1480 -125 c0 -38 -4
-70 -9 -70 -5 0 -23 -3 -40 -6 -28 -6 -31 -4 -31 20 0 25 -3 26 -50 26 -27 0
-50 -4 -50 -10 0 -5 5 -10 10 -10 6 0 10 -18 10 -40 l0 -40 41 0 40 0 -3 -47
c-3 -46 -4 -48 -38 -53 -34 -5 -35 -7 -38 -52 -3 -43 -1 -48 17 -48 18 0 21
-6 21 -48 l0 -49 -62 -18 c-35 -9 -71 -20 -80 -22 -16 -5 -18 2 -18 50 0 46 3
55 20 60 19 5 20 14 20 161 0 149 -1 156 -20 156 -18 0 -20 7 -20 55 l0 55
140 0 140 0 0 -70z m190 25 c0 -39 -3 -45 -20 -45 -20 0 -20 -5 -18 -127 3
-106 6 -128 18 -128 10 0 16 -13 18 -42 2 -24 1 -43 -1 -43 -8 0 -124 -22
-139 -26 -15 -5 -18 2 -18 41 0 38 4 48 20 52 19 5 20 14 20 140 0 122 -2 134
-17 131 -15 -2 -19 6 -21 45 l-3 47 80 0 81 0 0 -45z m350 -15 l0 -60 -39 0
c-30 0 -40 4 -44 20 -4 15 -13 20 -39 20 -30 -1 -31 -2 -15 -14 14 -11 17 -30
17 -120 0 -99 1 -106 20 -106 17 0 20 -7 20 -39 l0 -38 -52 -7 c-104 -12 -108
-11 -108 33 0 30 4 40 20 44 19 5 20 14 20 121 0 107 -1 116 -19 116 -10 0
-21 -9 -24 -20 -4 -15 -14 -20 -41 -20 l-36 0 0 65 0 65 160 0 160 0 0 -60z
m203 -45 c32 -58 60 -105 63 -105 2 0 4 27 4 61 0 52 -3 62 -20 66 -16 4 -20
14 -20 44 l0 39 80 0 80 0 0 -40 c0 -33 -3 -40 -20 -40 -19 0 -20 -7 -20 -155
l0 -155 -40 0 c-45 0 -44 -1 -114 130 l-46 85 0 -67 c0 -61 2 -68 20 -68 17 0
20 -7 20 -40 l0 -40 -80 0 -80 0 0 40 c0 33 3 40 20 40 19 0 20 7 20 111 0
102 -2 111 -20 116 -16 4 -20 14 -20 44 l0 39 58 0 57 0 58 -105z m497 40 l0
-65 -40 0 c-33 0 -40 4 -40 19 0 21 -26 31 -85 30 -39 0 -40 0 -17 -16 12 -8
22 -26 22 -39 0 -19 6 -23 38 -26 36 -3 37 -4 37 -43 0 -40 0 -40 -37 -39 -37
1 -38 1 -38 -36 0 -36 2 -38 36 -42 29 -3 38 -1 42 14 3 13 14 18 43 18 l39 0
0 -65 0 -66 -47 6 c-27 4 -88 10 -138 13 l-90 7 -3 43 c-2 23 0 42 5 41 31 -5
33 3 33 112 0 102 -2 111 -20 116 -16 4 -20 14 -20 44 l0 39 140 0 140 0 0
-65z m235 28 c24 -27 35 -47 35 -70 0 -32 -2 -33 -39 -33 -33 0 -40 4 -43 23
-3 20 -9 22 -63 25 -57 3 -59 2 -37 -13 14 -11 22 -26 22 -46 0 -28 2 -29 44
-29 40 0 48 -4 80 -42 33 -39 36 -46 36 -107 0 -63 -1 -67 -35 -94 -31 -25
-40 -27 -86 -21 -64 9 -119 60 -119 112 0 32 1 33 38 30 29 -2 38 -8 40 -24 2
-16 12 -23 35 -27 41 -6 49 2 45 44 -3 31 -6 34 -47 41 -30 5 -56 18 -78 40
-31 30 -33 36 -33 97 0 60 3 68 32 98 28 29 38 33 85 33 48 0 56 -3 88 -37z
m269 -7 c26 -32 36 -54 36 -79 0 -42 -2 -44 -45 -39 -29 3 -35 8 -35 27 0 26
-22 35 -90 35 l-45 -1 28 -17 c20 -12 27 -25 27 -48 0 -31 2 -32 48 -39 43 -6
50 -11 80 -56 29 -44 32 -56 32 -122 0 -70 -1 -75 -34 -106 l-33 -32 -57 16
c-47 14 -61 24 -86 60 -20 29 -30 56 -30 79 0 34 1 36 28 30 48 -10 52 -13 52
-39 0 -17 5 -25 18 -25 9 0 27 -3 40 -6 22 -6 23 -5 20 42 l-3 49 -48 10 c-39
8 -54 18 -78 49 -26 35 -29 48 -29 111 0 64 3 74 31 108 28 34 34 37 84 37 50
0 54 -2 89 -44z m237 -73 c-12 -20 -14 -14 -5 12 4 9 9 14 11 11 3 -2 0 -13
-6 -23z m-2341 -18 c0 -5 -5 -3 -10 5 -5 8 -10 20 -10 25 0 6 5 3 10 -5 5 -8
10 -19 10 -25z m857 -498 c0 -1 -1 -15 -4 -30 -4 -23 -9 -26 -27 -21 -31 9
-36 17 -29 42 5 20 10 22 32 17 14 -4 27 -7 28 -8z m567 -9 c6 -26 1 -33 -31
-43 -14 -4 -23 -2 -23 4 0 6 10 11 23 12 12 0 16 3 9 6 -6 2 -9 9 -6 15 4 6
-1 8 -15 3 -12 -3 -21 -2 -21 4 0 9 19 17 46 20 7 0 14 -9 18 -21z m-482 -13
c3 -3 3 -17 0 -30 -3 -17 -11 -25 -26 -25 -32 0 -46 13 -39 38 4 16 13 22 32
22 15 0 30 -2 33 -5z m398 -9 c0 -8 -6 -17 -12 -19 -7 -3 -4 -6 7 -7 l20 -1
-20 -9 c-40 -17 -54 -12 -51 18 2 15 4 28 5 30 0 1 12 2 26 2 15 0 25 -6 25
-14z m-322 -6 c15 -1 15 -2 0 -11 -10 -5 -18 -17 -18 -24 0 -8 -4 -15 -10 -15
-5 0 -10 9 -10 20 0 11 -5 20 -11 20 -5 0 -7 5 -4 11 4 6 14 8 22 5 8 -3 22
-6 31 -6z m147 -20 c0 -8 -11 -17 -25 -21 -25 -6 -25 -6 5 -11 28 -5 27 -5 -8
-7 -36 -1 -37 0 -33 27 2 15 5 28 5 30 3 11 56 -6 56 -18z m93 -6 c2 -17 -3
-23 -25 -27 -36 -7 -43 -2 -43 29 0 22 4 25 33 22 24 -2 33 -8 35 -24z m-198
-24 c0 -5 -5 -10 -11 -10 -5 0 -7 5 -4 10 3 6 8 10 11 10 2 0 4 -4 4 -10z"/>
<path d="M1778 2699 c-10 -5 -18 -18 -18 -27 0 -14 7 -17 38 -14 28 3 39 8 39
20 0 30 -28 40 -59 21z"/>
<path d="M1678 2693 c10 -4 9 -8 -5 -19 -16 -12 -14 -13 25 -14 29 0 42 4 42
14 0 16 -22 26 -53 25 -12 0 -16 -3 -9 -6z"/>
<path d="M1484 2356 c-29 -22 -14 -24 41 -4 50 17 50 17 14 18 -19 0 -44 -6
-55 -14z"/>
<path d="M1968 2355 c23 -7 50 -19 60 -26 9 -7 6 -1 -7 14 -18 20 -33 27 -60
26 l-36 0 43 -14z"/>
<path d="M1337 2053 c-3 -5 5 -8 18 -8 13 0 21 3 18 8 -2 4 -10 7 -18 7 -8 0
-16 -3 -18 -7z"/>
<path d="M1159 1967 c9 -12 17 -14 26 -7 8 6 15 6 23 -2 8 -8 12 -9 12 -1 0
15 -28 24 -36 12 -4 -6 -12 -5 -22 3 -15 12 -16 11 -3 -5z"/>
<path d="M2099 2072 c6 -12 16 -24 22 -28 8 -4 8 -1 0 14 -6 12 -16 24 -22 28
-8 4 -8 1 0 -14z"/>
<path d="M2275 1960 c-3 -5 -1 -10 4 -10 6 0 11 5 11 10 0 6 -2 10 -4 10 -3 0
-8 -4 -11 -10z"/>
<path d="M1255 1550 c-3 -5 -2 -10 4 -10 5 0 13 5 16 10 3 6 2 10 -4 10 -5 0
-13 -4 -16 -10z"/>
<path d="M1165 1540 c-4 -6 6 -7 27 -3 44 8 48 13 10 13 -17 0 -34 -4 -37 -10z"/>
<path d="M2180 1560 c0 -5 5 -10 11 -10 5 0 7 5 4 10 -3 6 -8 10 -11 10 -2 0
-4 -4 -4 -10z"/>
<path d="M2226 1548 c3 -4 9 -8 15 -8 5 0 9 4 9 8 0 5 -7 9 -15 9 -8 0 -12 -4
-9 -9z"/>
<path d="M2271 1546 c11 -9 69 -14 69 -6 0 6 -16 10 -37 10 -20 0 -34 -2 -32
-4z"/>
<path d="M1935 760 c-3 -5 -2 -10 4 -10 5 0 13 5 16 10 3 6 2 10 -4 10 -5 0
-13 -4 -16 -10z"/>
<path d="M1768 733 c7 -3 16 -2 19 1 4 3 -2 6 -13 5 -11 0 -14 -3 -6 -6z"/>
<path d="M1847 744 c-9 -10 2 -24 19 -24 8 0 14 7 14 15 0 15 -21 21 -33 9z"/>
</g>
</svg>
