<?xml version="1.0" encoding="UTF-8"?>
<svg version="1.1" xmlns="http://www.w3.org/2000/svg" width="260" height="280">
<path d="M0 0 C85.8 0 171.6 0 260 0 C260 92.4 260 184.8 260 280 C174.2 280 88.4 280 0 280 C0 187.6 0 95.2 0 0 Z " fill="#FEFEFE" transform="translate(0,0)"/>
<path d="M0 0 C0.02686553 1.97909398 0.04633375 3.95828971 0.0625 5.9375 C0.07410156 7.03964844 0.08570313 8.14179687 0.09765625 9.27734375 C0 12 0 12 -1 13 C-2.99958364 13.04080783 -5.00045254 13.04254356 -7 13 C-7 12.34 -7 11.68 -7 11 C-8.60875 11.12375 -8.60875 11.12375 -10.25 11.25 C-14.63581359 10.95761243 -15.21292003 10.1715048 -18 7 C-20.05987468 6.35060228 -20.05987468 6.35060228 -22 6 C-22.02578125 7.25554687 -22.0515625 8.51109375 -22.078125 9.8046875 C-22.71049597 30.71049597 -22.71049597 30.71049597 -29 37 C-27.77023438 37.02578125 -26.54046875 37.0515625 -25.2734375 37.078125 C-23.64059068 37.13443006 -22.00777955 37.19177685 -20.375 37.25 C-19.56675781 37.26417969 -18.75851563 37.27835938 -17.92578125 37.29296875 C-12.48632661 37.51408479 -9.36717176 38.48495931 -5 42 C-4.21625 42.5775 -3.4325 43.155 -2.625 43.75 C-2.08875 44.1625 -1.5525 44.575 -1 45 C-0.67 44.67 -0.34 44.34 0 44 C8.63509721 42.97321456 14.19017433 45.14263075 21 50.25 C21.99 51.11625 21.99 51.11625 23 52 C22.67 51.34 22.34 50.68 22 50 C27.75 47 27.75 47 30 47 C30 42.71 30 38.42 30 34 C29.01 34 28.02 34 27 34 C24.67409146 30.36576791 24.83734167 27.22911669 25 23 C25.99 22.67 26.98 22.34 28 22 C27.938125 20.96875 27.87625 19.9375 27.8125 18.875 C28.01732531 14.64194356 28.71943808 12.53880298 31 9 C35.92644832 4.55418079 38.9513878 3.64913018 45.45703125 3.71484375 C50.10221772 4.23573256 52.82145066 6.65889213 55.8125 10.0625 C58.24190296 14.02626273 58.08562957 17.46163281 58 22 C59.485 22.495 59.485 22.495 61 23 C61.28571429 30.42857143 61.28571429 30.42857143 59 34 C58.01 34 57.02 34 56 34 C56.03255752 41.21000659 56.03255752 41.21000659 58.875 47.5625 C61.72107322 49.90507864 61.72107322 49.90507864 65 51 C66.24153118 50.05774006 67.4681704 49.09581862 68.6875 48.125 C73.35928758 44.60869013 76.70175105 42.76627977 82.6875 43.375 C83.780625 43.58125 84.87375 43.7875 86 44 C90.28535967 44 91.84942699 41.7483722 95 39 C97.23647631 37.88176185 98.64891529 37.80603939 101.1328125 37.68359375 C101.93847656 37.64169922 102.74414062 37.59980469 103.57421875 37.55664062 C104.41597656 37.51732422 105.25773438 37.47800781 106.125 37.4375 C106.97449219 37.39431641 107.82398438 37.35113281 108.69921875 37.30664062 C110.79928223 37.20045764 112.89961948 37.09971503 115 37 C114.38125 36.13375 113.7625 35.2675 113.125 34.375 C109.13945733 28.04502047 108.63854717 22.41647159 108.375 15.125 C108.33632812 14.24585937 108.29765625 13.36671875 108.2578125 12.4609375 C108.16418966 10.30761207 108.08103541 8.15383586 108 6 C103.17557816 7.26946514 103.17557816 7.26946514 100 11 C96.375 11.1875 96.375 11.1875 93 11 C93 11.66 93 12.32 93 13 C91.00045254 13.04254356 88.99958364 13.04080783 87 13 C85.18960804 11.18960804 85.70119483 8.56909565 85.625 6.125 C85.57601562 5.05507812 85.52703125 3.98515625 85.4765625 2.8828125 C86 0 86 0 88.359375 -1.83984375 C94.48293515 -4.53022447 101.40552498 -4.65154993 108 -4 C113.66562178 -1.71196044 116.03304356 2.74825908 119.0703125 7.796875 C120.44327522 10.07588194 121.83748405 12.29965023 123.3046875 14.515625 C131.87142768 27.45433252 131.87142768 27.45433252 134 34 C134.25394531 34.74765625 134.50789062 35.4953125 134.76953125 36.265625 C135.37114043 38.81056169 135.56931036 40.44038061 135 43 C132.41742914 46.22673613 129.30724982 48.55076311 126 51 C124.73989345 52.02941776 123.48869587 53.06991613 122.25 54.125 C121.40308594 54.8365625 121.40308594 54.8365625 120.5390625 55.5625 C118.73430119 57.16708255 118.73430119 57.16708255 116.625 60.125 C111.55439395 65.67852091 105.73405822 67.01591849 98.4375 67.9375 C92.40828932 68.70884268 88.84906842 70.38696863 84 74 C84.61875 73.690625 85.2375 73.38125 85.875 73.0625 C87.25 72.375 88.625 71.6875 90 71 C87.10863293 82.46401682 82.51055471 93.71736235 73.125 101.3125 C69.06137602 104.76734136 66.00690706 108.61492721 63 113 C63.33 112.67 63.66 112.34 64 112 C65.66666667 110.33333333 67.33333333 108.66666667 69 107 C69.66 107.33 70.32 107.66 71 108 C70.82082031 108.51949219 70.64164062 109.03898437 70.45703125 109.57421875 C69.8520174 112.11057388 69.8520174 112.11057388 70.38671875 115.14453125 C70.74614195 119.52762721 70.93322279 122.97773965 69 127 C63.96077785 132.49422234 57.52445615 136.53215302 51.27416992 140.52050781 C48.96902539 141.94109358 48.96902539 141.94109358 47.0168457 143.75292969 C45 145 45 145 42.53149414 144.87841797 C39.74841967 143.91270267 37.84457859 142.71906802 35.49609375 140.9453125 C34.67302734 140.33042969 33.84996094 139.71554688 33.00195312 139.08203125 C31.73254883 138.11330078 31.73254883 138.11330078 30.4375 137.125 C29.16229492 136.16787109 29.16229492 136.16787109 27.86132812 135.19140625 C25.56834804 133.46852396 23.2837352 131.73510196 21 130 C20.26168945 129.50661133 19.52337891 129.01322266 18.76269531 128.50488281 C17 127 17 127 16.42578125 123.6015625 C16.36970703 121.63316406 16.36970703 121.63316406 16.3125 119.625 C16.16304079 115.29495322 16.00275276 111.22297505 15 107 C18.36591866 108.44253657 20.51047079 110.33264727 23 113 C19.77529151 108.30113906 16.37085333 104.33471128 12.23071289 100.44677734 C5.25893841 93.86347105 1.3113107 88.11810194 -2 79 C-2.33515625 78.1440625 -2.6703125 77.288125 -3.015625 76.40625 C-3.70895865 74.61618857 -4.361104 72.81020534 -5 71 C-4.195625 71.33 -3.39125 71.66 -2.5625 72 C-0.30318875 73.06059041 -0.30318875 73.06059041 1 73 C-3.89772524 70.11898516 -7.84379217 68.72431067 -13.5 68 C-21.05296241 67.0022738 -26.98781628 64.9760652 -32 59 C-32.66 58.01 -33.32 57.02 -34 56 C-35.01074834 55.04935021 -36.05619328 54.13487254 -37.125 53.25 C-37.73601563 52.72535156 -38.34703125 52.20070312 -38.9765625 51.66015625 C-40.37101411 50.51605985 -41.80721334 49.4216358 -43.2734375 48.37109375 C-45.47442862 46.70683556 -47.28010147 45.15883097 -49 43 C-50.65742466 29.9477808 -38.32910997 15.04411616 -31 5 C-30.08306015 3.60434611 -29.16633714 2.20854968 -28.25 0.8125 C-21.36618657 -7.79226678 -8.65138785 -4.32569393 0 0 Z " fill="#424244" transform="translate(87,59)"/>
<path d="M0 0 C0.66 1.32 1.32 2.64 2 4 C2.66 3.67 3.32 3.34 4 3 C4 4.32 4 5.64 4 7 C4.99 7.66 5.98 8.32 7 9 C6.195625 8.814375 5.39125 8.62875 4.5625 8.4375 C3.716875 8.293125 2.87125 8.14875 2 8 C1.67 8.33 1.34 8.66 1 9 C-1.01964199 9.07244053 -3.04167124 9.08377188 -5.0625 9.0625 C-6.71958984 9.04896484 -6.71958984 9.04896484 -8.41015625 9.03515625 C-9.26480469 9.02355469 -10.11945313 9.01195312 -11 9 C-11.625 7.125 -11.625 7.125 -12 5 C-11.34 4.34 -10.68 3.68 -10 3 C-8.32995171 3.31595508 -6.66362417 3.65179959 -5 4 C-2.27497035 3.62277985 -2.27497035 3.62277985 0 3 C0 2.01 0 1.02 0 0 Z " fill="#969696" transform="translate(110,266)"/>
<path d="M0 0 C0.33 0.99 0.66 1.98 1 3 C2.98 3 4.96 3 7 3 C7 4.65 7 6.3 7 8 C7.66 8 8.32 8 9 8 C9 6.35 9 4.7 9 3 C9.99 3 10.98 3 12 3 C12.33 2.34 12.66 1.68 13 1 C13 1.66 13 2.32 13 3 C13.99 3 14.98 3 16 3 C16.33 2.34 16.66 1.68 17 1 C17 1.66 17 2.32 17 3 C17.66 3.33 18.32 3.66 19 4 C18.34 4 17.68 4 17 4 C17 5.32 17 6.64 17 8 C17.66 8.33 18.32 8.66 19 9 C18.01 9 17.02 9 16 9 C16 7.35 16 5.7 16 4 C15.01 4 14.02 4 13 4 C13 5.32 13 6.64 13 8 C13.66 8.33 14.32 8.66 15 9 C11.04 9 7.08 9 3 9 C3 7.35 3 5.7 3 4 C2.34 4 1.68 4 1 4 C1 5.65 1 7.3 1 9 C0.67 9 0.34 9 0 9 C0 6.03 0 3.06 0 0 Z " fill="#747474" transform="translate(60,266)"/>
<path d="M0 0 C1.1446875 0.2475 1.1446875 0.2475 2.3125 0.5 C5.03392445 1.00631153 6.40067115 0.74266539 9 0 C10 1 10 1 10.0625 4.0625 C10.041875 5.031875 10.02125 6.00125 10 7 C8.1875 7.625 8.1875 7.625 6 8 C5.01 7.34 4.02 6.68 3 6 C2.01 6.66 1.02 7.32 0 8 C-0.38063221 5.6739143 -0.71269945 3.33944736 -1 1 C-0.67 0.67 -0.34 0.34 0 0 Z " fill="#7E7E7E" transform="translate(197,267)"/>
<path d="M0 0 C0.99 0.33 1.98 0.66 3 1 C5.63804589 0.60602665 5.63804589 0.60602665 8 0 C8.98120464 3.05263664 8.98120464 4.94736336 8 8 C7.21625 7.814375 6.4325 7.62875 5.625 7.4375 C3.02910225 6.74037734 3.02910225 6.74037734 1 8 C1 7.34 1 6.68 1 6 C-0.32 5.67 -1.64 5.34 -3 5 C-1.68 5 -0.36 5 1 5 C0.67 3.35 0.34 1.7 0 0 Z " fill="#8D8D8D" transform="translate(174,267)"/>
<path d="M0 0 C2.01822917 0.06510417 4.03645833 0.13020833 6.0546875 0.1953125 C6.3846875 1.8453125 6.7146875 3.4953125 7.0546875 5.1953125 C3.64905898 5.97374188 0.54702994 6.29509371 -2.9453125 6.1953125 C-3.5703125 4.3203125 -3.5703125 4.3203125 -3.9453125 2.1953125 C-1.9453125 0.1953125 -1.9453125 0.1953125 0 0 Z " fill="#919191" transform="translate(121.9453125,268.8046875)"/>
<path d="M0 0 C3.125 0.375 3.125 0.375 6 1 C6 2.32 6 3.64 6 5 C6.66 5.33 7.32 5.66 8 6 C5.03 6 2.06 6 -1 6 C-1.33 4.68 -1.66 3.36 -2 2 C-1.34 1.34 -0.68 0.68 0 0 Z " fill="#898989" transform="translate(100,269)"/>
<path d="M0 0 C1.23556641 0.01740234 1.23556641 0.01740234 2.49609375 0.03515625 C3.32238281 0.04417969 4.14867188 0.05320312 5 0.0625 C5.63808594 0.07410156 6.27617188 0.08570313 6.93359375 0.09765625 C5.94359375 0.59265625 5.94359375 0.59265625 4.93359375 1.09765625 C4.93359375 2.74765625 4.93359375 4.39765625 4.93359375 6.09765625 C4.27359375 6.09765625 3.61359375 6.09765625 2.93359375 6.09765625 C2.93359375 5.10765625 2.93359375 4.11765625 2.93359375 3.09765625 C1.61359375 3.09765625 0.29359375 3.09765625 -1.06640625 3.09765625 C-1.06640625 3.75765625 -1.06640625 4.41765625 -1.06640625 5.09765625 C-0.07640625 5.42765625 0.91359375 5.75765625 1.93359375 6.09765625 C0.61359375 6.09765625 -0.70640625 6.09765625 -2.06640625 6.09765625 C-2.44859392 4.44150968 -2.78035727 2.77308601 -3.06640625 1.09765625 C-2.06640625 0.09765625 -2.06640625 0.09765625 0 0 Z " fill="#909090" transform="translate(82.06640625,268.90234375)"/>
<path d="M0 0 C0 3.64671676 -0.67638107 4.27575712 -3 7 C-4.2065625 8.175625 -4.2065625 8.175625 -5.4375 9.375 C-8.11358357 12.1163539 -9.97135964 14.76920239 -12 18 C-12.33 17.34 -12.66 16.68 -13 16 C-9.24841068 9.93974033 -5.24927977 4.82995861 0 0 Z " fill="#D4D4D5" transform="translate(161,158)"/>
<path d="M0 0 C1.32 0.33 2.64 0.66 4 1 C4 2.98 4 4.96 4 7 C2.68 7.33 1.36 7.66 0 8 C0 5.36 0 2.72 0 0 Z " fill="#A5A5A5" transform="translate(203,267)"/>
<path d="M0 0 C0.66 0.33 1.32 0.66 2 1 C2 1.66 2 2.32 2 3 C2.31478446 4.33783393 2.64587656 5.67203709 3 7 C1.68 7.33 0.36 7.66 -1 8 C-1.625 5.6875 -1.625 5.6875 -2 3 C-1.34 2.01 -0.68 1.02 0 0 Z " fill="#7D7D7D" transform="translate(162,267)"/>
<path d="M0 0 C0.66 0.33 1.32 0.66 2 1 C2 1.66 2 2.32 2 3 C2.31478446 4.33783393 2.64587656 5.67203709 3 7 C1.68 7.33 0.36 7.66 -1 8 C-1.625 5.6875 -1.625 5.6875 -2 3 C-1.34 2.01 -0.68 1.02 0 0 Z " fill="#7F7F7F" transform="translate(156,267)"/>
<path d="M0 0 C2.0625 0.4375 2.0625 0.4375 4 1 C3.6875 3.375 3.6875 3.375 3 6 C2.01 6.66 1.02 7.32 0 8 C-0.38063221 5.6739143 -0.71269945 3.33944736 -1 1 C-0.67 0.67 -0.34 0.34 0 0 Z " fill="#828282" transform="translate(185,267)"/>
<path d="M0 0 C0.33 0.66 0.66 1.32 1 2 C1.99 2 2.98 2 4 2 C4.33 1.34 4.66 0.68 5 0 C5 0.66 5 1.32 5 2 C5.66 2.33 6.32 2.66 7 3 C6.34 3 5.68 3 5 3 C5 4.32 5 5.64 5 7 C5.66 7.33 6.32 7.66 7 8 C6.01 8 5.02 8 4 8 C4 6.35 4 4.7 4 3 C3.01 3 2.02 3 1 3 C1 4.32 1 5.64 1 7 C1.66 7.33 2.32 7.66 3 8 C2.01 8 1.02 8 0 8 C0 5.36 0 2.72 0 0 Z " fill="#4C4C4C" transform="translate(72,267)"/>
<path d="M0 0 C0.33 0 0.66 0 1 0 C1.19392201 5.52677733 0.7479503 9.75614911 -1 15 C-1.66 15 -2.32 15 -3 15 C-3 12.69 -3 10.38 -3 8 C-2.01 7.67 -1.02 7.34 0 7 C0 4.69 0 2.38 0 0 Z " fill="#737374" transform="translate(115,74)"/>
<path d="M0 0 C2 0.25 2 0.25 4 1 C4.33 1.99 4.66 2.98 5 4 C3.35 4.33 1.7 4.66 0 5 C-0.5625 3.0625 -0.5625 3.0625 -1 1 C-0.67 0.67 -0.34 0.34 0 0 Z " fill="#B0B0B0" transform="translate(119,270)"/>
<path d="M0 0 C1.22329074 3.66987221 0.88021006 6.33967822 0.5625 10.1875 C0.46066406 11.45980469 0.35882813 12.73210937 0.25390625 14.04296875 C0.12822266 15.50669922 0.12822266 15.50669922 0 17 C-0.33 17 -0.66 17 -1 17 C-1.33 11.72 -1.66 6.44 -2 1 C-1.34 0.67 -0.68 0.34 0 0 Z " fill="#68686A" transform="translate(64,67)"/>
<path d="M0 0 C0.99 0.33 1.98 0.66 3 1 C2.38125 1.0825 1.7625 1.165 1.125 1.25 C-1.15042479 1.79923543 -1.15042479 1.79923543 -2.125 3.875 C-2.41375 4.57625 -2.7025 5.2775 -3 6 C-3.99 7.485 -3.99 7.485 -5 9 C-5.66 8.67 -6.32 8.34 -7 8 C-6.21366078 6.85050412 -5.42073742 5.70551011 -4.625 4.5625 C-4.18414062 3.92441406 -3.74328125 3.28632812 -3.2890625 2.62890625 C-2 1 -2 1 0 0 Z " fill="#4C4C4E" transform="translate(63,56)"/>
<path d="M0 0 C1 2 1 2 0.0625 5.125 C-0.288125 6.07375 -0.63875 7.0225 -1 8 C-1.99 7.34 -2.98 6.68 -4 6 C-4.66 5.67 -5.32 5.34 -6 5 C-4.02 3.35 -2.04 1.7 0 0 Z " fill="#4F4F4F" transform="translate(176,130)"/>
<path d="M0 0 C2.475 0.99 2.475 0.99 5 2 C5 3.32 5 4.64 5 6 C4.34 6.66 3.68 7.32 3 8 C2.01 5.36 1.02 2.72 0 0 Z " fill="#585759" transform="translate(82,130)"/>
<path d="M0 0 C3 1 3 1 4 3 C3.01 3 2.02 3 1 3 C1 3.66 1 4.32 1 5 C1.99 5.33 2.98 5.66 4 6 C2.68 6 1.36 6 0 6 C-0.38218767 4.34385343 -0.71395102 2.67542976 -1 1 C-0.67 0.67 -0.34 0.34 0 0 Z " fill="#5C5C5C" transform="translate(80,269)"/>
</svg>
